<svg xmlns="http://www.w3.org/2000/svg" viewBox="0 0 24 24" id="snapchat"><g data-name="<Group>"><path fill="none" stroke="#303c42" stroke-linecap="round" stroke-linejoin="round" d="m18.25 13.14 2.19-1.71a1 1 0 0 0 .33-1.1h0a1 1 0 0 0-1.13-.67L18.1 10a.5.5 0 0 1-.58-.59C18.28 4.73 15.84 1.5 12 1.5S5.71 4.73 6.48 9.37a.5.5 0 0 1-.58.63l-1.54-.33a1 1 0 0 0-1.14.66h0a1 1 0 0 0 .33 1.1l2.2 1.71a.5.5 0 0 1 .15.6A7.92 7.92 0 0 1 .5 18c.13 1.69 3 .38 3.5 1a2.7 2.7 0 0 1 .5 1.5h2c1.5 0 3.31 2 5.5 2s4-2 5.5-2h2A2.7 2.7 0 0 1 20 19c.5-.62 3.38.69 3.5-1a7.92 7.92 0 0 1-5.41-4.26.5.5 0 0 1 .16-.6Z" data-name="<Path>"></path></g></svg>